# xmcd
#
# Track frame offsets:
#	150
#	37629
#	77347
#	117255
#	178685
#	215552
#	242085
#	269386
#	311551
#
# Disc length: 4613 seconds
#
# Revision: 0
# Processed by: cddbd v1.5.2PL0 Copyright (c) Steve Scherf et al.
# Submitted via: audiograbber 1.83.01
#
DISCID=6e120309
DTITLE=Grateful Dead - 92-12-06 Compton Terrace Amphitheatre, Chandler AZ
DYEAR=1900
DGENRE=
TTITLE0=Crazy Fingers
TTITLE1=Uncle John's Band > Jam
TTITLE2=Playing In The Band Reprise
TTITLE3=Drums
TTITLE4=Jam
TTITLE5=The Last Time
TTITLE6=China Doll
TTITLE7=Throwing Stones
TTITLE8=Not Fade Away
EXTD=
EXTT0=
EXTT1=
EXTT2=
EXTT3=
EXTT4=
EXTT5=
EXTT6=
EXTT7=
EXTT8=
PLAYORDER=
